# xmcd
#
# Track frame offsets: 
#        150
#        14186
#        37320
#        54950
#        68875
#        83678
#        100275
#        112793
#        133421
#        154508
#        180600
#        197348
#        213844
#        228152
#        251638
#        274758
#        288064
#
# Disc length: 4005 seconds
#
# Revision: 0
# Processed by: cddbd v1.5.2PL0 Copyright (c) Steve Scherf et al.
# Submitted via: ExactAudioCopy v0.99pb5
#
DISCID=e80fa311
DTITLE=Ane Brun - Live at Stockholm Concert Hall
DYEAR=2009
DGENRE=Country
TTITLE0=The puzzle
TTITLE1=Humming one of your songs
TTITLE2=To let myself go
TTITLE3=My star
TTITLE4=The treehouse song
TTITLE5=Lullaby for grown-ups
TTITLE6=Linger with pleasure
TTITLE7=Lift me (feat. Sivert Høyem)
TTITLE8=Sleeping by the Fyris river
TTITLE9=Balloon ranger
TTITLE10=Ten seconds
TTITLE11=The fall
TTITLE12=Big in Japan
TTITLE13=My lover will go
TTITLE14=Song No.6
TTITLE15=True colors
TTITLE16=My baby's arms (Studio version)
EXTD=
EXTT0=
EXTT1=
EXTT2=
EXTT3=
EXTT4=
EXTT5=
EXTT6=
EXTT7=
EXTT8=
EXTT9=
EXTT10=
EXTT11=
EXTT12=
EXTT13=
EXTT14=
EXTT15=
EXTT16=
PLAYORDER=
